<svg id="svg" version="1.1" xmlns="http://www.w3.org/2000/svg" xmlns:xlink="http://www.w3.org/1999/xlink" width="400" height="400" viewBox="0, 0, 400,400"><g id="svgg"><path id="path0" d="M179.492 64.291 C 177.129 64.608,174.203 64.906,172.991 64.953 C 171.778 65.001,170.852 65.149,170.933 65.283 C 171.014 65.418,170.336 65.641,169.426 65.781 C 164.013 66.610,153.805 69.452,146.767 72.089 C 143.592 73.279,140.780 74.128,140.517 73.977 C 140.254 73.826,140.168 73.845,140.326 74.020 C 140.699 74.432,127.390 80.934,126.852 80.602 C 126.623 80.460,126.557 80.534,126.701 80.768 C 127.036 81.309,122.823 83.743,122.210 83.364 C 121.947 83.201,121.859 83.251,122.002 83.483 C 122.296 83.958,118.049 86.814,117.528 86.492 C 117.330 86.370,117.216 86.441,117.275 86.649 C 117.428 87.188,113.746 89.936,113.268 89.640 C 113.050 89.505,112.920 89.556,112.979 89.752 C 113.151 90.324,110.612 92.274,110.104 91.960 C 109.838 91.796,109.749 91.844,109.891 92.075 C 110.167 92.521,108.884 93.847,108.350 93.669 C 108.162 93.606,107.953 93.730,107.887 93.945 C 107.627 94.782,106.065 96.106,105.565 95.914 C 105.275 95.803,105.138 95.875,105.261 96.074 C 105.517 96.488,102.429 99.079,101.872 98.916 C 101.670 98.857,101.596 98.957,101.709 99.139 C 101.994 99.602,94.756 106.735,94.381 106.360 C 94.213 106.192,94.134 106.318,94.206 106.641 C 94.278 106.965,94.105 107.179,93.819 107.119 C 93.534 107.060,93.403 107.177,93.528 107.379 C 93.811 107.836,91.892 110.171,91.333 110.050 C 91.108 110.001,90.877 110.235,90.820 110.570 C 90.651 111.559,85.072 118.353,84.645 118.090 C 84.427 117.955,84.375 118.044,84.528 118.291 C 84.875 118.853,83.211 121.145,82.690 120.823 C 82.476 120.691,82.422 120.778,82.570 121.018 C 83.086 121.852,79.273 127.025,78.556 126.465 C 78.013 126.041,77.995 126.060,78.421 126.606 C 79.190 127.591,77.151 131.106,76.228 130.385 C 75.661 129.942,75.646 129.960,76.099 130.539 C 76.670 131.268,74.109 136.938,73.405 136.503 C 73.213 136.385,73.172 136.589,73.313 136.958 C 73.501 137.449,73.432 137.543,73.053 137.308 C 72.721 137.104,72.629 137.140,72.796 137.410 C 73.125 137.943,72.266 139.890,71.822 139.616 C 71.641 139.504,71.609 139.714,71.751 140.083 C 71.939 140.574,71.869 140.668,71.490 140.433 C 71.133 140.213,71.066 140.264,71.273 140.599 C 71.660 141.225,70.329 144.197,69.807 143.874 C 69.574 143.730,69.531 143.825,69.704 144.104 C 70.093 144.733,69.164 146.935,68.644 146.614 C 68.408 146.468,68.356 146.553,68.520 146.818 C 68.844 147.342,68.435 148.921,68.038 148.676 C 67.893 148.586,67.745 148.891,67.709 149.354 C 67.674 149.817,66.741 152.808,65.636 156.000 C 55.441 185.457,55.802 217.162,66.676 247.343 C 67.426 249.426,67.909 251.343,67.749 251.602 C 67.575 251.883,67.622 251.972,67.863 251.823 C 68.391 251.497,69.306 253.703,68.920 254.371 C 68.756 254.656,68.776 254.745,68.966 254.572 C 69.401 254.175,74.322 264.360,73.970 264.930 C 73.801 265.204,73.892 265.241,74.225 265.035 C 74.604 264.801,74.673 264.895,74.485 265.386 C 74.340 265.765,74.387 265.958,74.594 265.830 C 75.081 265.529,75.893 267.081,75.544 267.647 C 75.380 267.912,75.444 267.982,75.704 267.821 C 76.458 267.355,77.498 269.844,76.880 270.634 C 76.426 271.214,76.442 271.231,77.016 270.782 C 77.750 270.208,78.360 270.766,77.890 271.582 C 77.736 271.851,77.754 271.939,77.930 271.779 C 78.345 271.403,80.971 275.284,80.652 275.801 C 80.519 276.016,80.643 276.143,80.928 276.084 C 81.214 276.025,81.421 276.280,81.392 276.656 C 81.362 277.030,81.466 277.256,81.623 277.160 C 82.486 276.626,83.667 279.349,82.944 280.205 C 82.230 281.051,82.230 281.051,83.049 280.361 C 83.963 279.592,85.141 280.327,84.544 281.293 C 84.372 281.571,84.420 281.659,84.661 281.510 C 85.193 281.181,86.083 282.261,85.738 282.819 C 85.561 283.105,85.292 283.012,84.936 282.543 C 84.641 282.154,84.394 282.034,84.387 282.276 C 84.367 282.985,85.428 283.711,85.742 283.203 C 86.119 282.593,87.207 283.558,86.936 284.263 C 86.822 284.562,86.887 284.708,87.083 284.587 C 87.873 284.099,89.182 286.447,88.427 286.999 C 88.050 287.274,87.940 287.500,88.184 287.500 C 88.427 287.500,88.741 287.313,88.883 287.084 C 89.051 286.812,89.397 286.900,89.883 287.340 C 90.711 288.089,90.896 288.881,90.137 288.425 C 89.801 288.223,89.815 288.336,90.181 288.788 C 90.474 289.149,90.855 289.357,91.027 289.251 C 91.358 289.046,94.165 292.116,94.026 292.531 C 93.982 292.664,94.121 292.821,94.336 292.878 C 95.122 293.089,102.296 300.543,102.068 300.912 C 101.938 301.121,102.033 301.169,102.278 301.017 C 102.532 300.861,103.439 301.438,104.389 302.360 C 105.305 303.250,105.847 303.871,105.593 303.741 C 105.340 303.610,105.004 303.725,104.847 303.998 C 104.690 304.270,104.706 304.362,104.882 304.203 C 105.058 304.043,105.471 304.131,105.801 304.398 C 106.279 304.785,106.341 304.784,106.107 304.395 C 105.658 303.647,106.436 303.814,107.167 304.622 C 107.523 305.015,107.682 305.483,107.520 305.661 C 107.359 305.839,107.447 305.858,107.717 305.702 C 108.306 305.363,111.818 308.117,111.485 308.656 C 111.353 308.869,110.987 308.810,110.610 308.515 C 110.028 308.060,110.017 308.079,110.501 308.696 C 110.916 309.225,111.165 309.282,111.575 308.941 C 112.321 308.323,113.482 309.248,112.876 309.978 C 112.581 310.334,112.597 310.561,112.932 310.768 C 113.219 310.945,113.300 310.893,113.140 310.634 C 112.996 310.401,113.049 310.105,113.257 309.976 C 113.795 309.644,117.632 312.487,117.323 312.988 C 117.176 313.226,117.252 313.288,117.502 313.133 C 118.072 312.781,124.665 317.172,124.344 317.691 C 124.202 317.921,124.291 317.970,124.554 317.808 C 125.167 317.429,129.379 319.863,129.045 320.404 C 128.894 320.648,128.968 320.711,129.222 320.554 C 129.794 320.201,133.693 322.180,133.390 322.670 C 133.262 322.877,132.860 323.061,132.496 323.078 C 132.069 323.098,132.013 323.180,132.337 323.310 C 132.613 323.421,133.074 323.316,133.362 323.077 C 134.194 322.386,135.303 322.975,134.678 323.776 C 134.244 324.332,134.261 324.351,134.808 323.924 C 135.444 323.427,141.215 325.533,140.847 326.128 C 140.766 326.260,141.078 326.392,141.541 326.421 C 142.963 326.513,149.595 329.395,149.338 329.810 C 149.206 330.024,149.294 330.078,149.535 329.929 C 149.776 329.780,152.535 330.454,155.667 331.427 C 184.043 340.237,216.411 338.936,244.235 327.866 C 247.187 326.692,249.807 325.857,250.057 326.012 C 250.340 326.187,250.406 326.122,250.232 325.841 C 250.060 325.563,250.374 325.231,251.051 324.977 C 251.654 324.750,254.048 323.603,256.370 322.429 C 258.693 321.255,260.785 320.414,261.021 320.559 C 261.267 320.711,261.338 320.645,261.189 320.404 C 260.872 319.891,265.051 317.419,265.630 317.777 C 265.853 317.914,265.987 317.794,265.928 317.510 C 265.868 317.223,266.124 317.016,266.500 317.046 C 266.873 317.075,267.096 316.965,266.994 316.800 C 266.573 316.119,269.942 314.376,270.634 314.917 C 271.214 315.371,271.231 315.355,270.782 314.781 C 270.236 314.083,270.758 313.418,271.494 313.873 C 271.714 314.009,271.846 313.888,271.787 313.603 C 271.728 313.317,271.983 313.110,272.359 313.139 C 272.733 313.169,272.959 313.065,272.863 312.909 C 272.443 312.230,275.021 310.860,275.707 311.397 C 276.292 311.856,276.310 311.841,275.860 311.265 C 275.295 310.543,275.847 309.909,276.623 310.389 C 276.882 310.549,276.969 310.497,276.826 310.266 C 276.552 309.824,282.271 304.948,283.064 304.948 C 283.336 304.948,283.483 304.825,283.390 304.675 C 283.161 304.304,284.546 303.088,285.328 302.973 C 285.675 302.922,285.961 302.716,285.964 302.515 C 285.974 301.872,288.828 299.195,289.308 299.379 C 289.562 299.477,290.094 299.173,290.491 298.704 L 291.211 297.852 290.234 298.623 C 289.697 299.047,289.946 298.659,290.786 297.760 C 291.627 296.861,292.506 296.235,292.739 296.368 C 292.973 296.501,293.038 296.470,292.883 296.299 C 292.537 295.915,297.620 290.166,298.064 290.440 C 298.240 290.549,298.496 290.456,298.633 290.234 C 298.770 290.013,299.073 289.949,299.306 290.093 C 299.561 290.251,299.618 290.173,299.447 289.898 C 299.292 289.646,299.001 289.542,298.801 289.665 C 298.098 290.100,298.447 289.175,299.264 288.439 C 299.718 288.030,301.237 286.250,302.639 284.483 C 304.040 282.717,305.366 281.382,305.584 281.516 C 305.815 281.659,305.860 281.566,305.691 281.293 C 305.263 280.602,306.231 279.576,306.836 280.078 C 307.179 280.363,307.474 280.279,307.858 279.790 C 308.342 279.173,308.331 279.154,307.750 279.609 C 306.695 280.434,306.504 279.450,307.466 278.149 C 307.940 277.508,308.502 277.092,308.716 277.224 C 308.931 277.357,308.984 277.268,308.834 277.026 C 308.544 276.557,311.215 272.405,311.718 272.543 C 311.883 272.589,311.994 272.325,311.966 271.957 C 311.937 271.590,312.147 271.337,312.431 271.396 C 312.716 271.455,312.842 271.330,312.710 271.118 C 312.371 270.569,316.028 264.415,316.515 264.716 C 316.737 264.853,316.802 264.777,316.661 264.549 C 316.296 263.959,316.797 262.844,317.289 263.149 C 317.514 263.288,317.585 263.218,317.447 262.994 C 317.308 262.769,318.061 260.765,319.120 258.539 C 321.175 254.222,325.000 244.851,325.000 244.135 C 325.000 243.898,325.174 243.811,325.386 243.943 C 325.602 244.076,325.676 243.930,325.553 243.610 C 325.433 243.296,325.785 241.613,326.336 239.870 C 335.885 209.641,334.496 177.479,322.387 148.453 C 321.450 146.206,320.773 144.131,320.884 143.843 C 320.994 143.555,320.943 143.406,320.770 143.513 C 320.597 143.621,319.967 142.707,319.370 141.483 C 318.773 140.259,317.417 137.712,316.356 135.824 C 315.295 133.935,314.549 132.177,314.698 131.917 C 314.847 131.658,314.823 131.578,314.644 131.740 C 314.226 132.119,312.049 128.869,312.290 128.227 C 312.390 127.961,312.321 127.786,312.135 127.837 C 311.607 127.983,307.769 122.653,308.062 122.179 C 308.217 121.927,308.142 121.866,307.878 122.030 C 307.633 122.181,307.045 121.945,306.572 121.504 C 306.099 121.064,305.471 120.703,305.177 120.703 C 304.882 120.703,304.733 120.555,304.845 120.374 C 305.175 119.839,300.807 120.668,299.793 121.333 C 299.281 121.668,298.675 121.826,298.445 121.684 C 298.215 121.542,298.076 121.659,298.135 121.944 C 298.194 122.228,297.941 122.438,297.574 122.409 C 297.206 122.381,296.943 122.482,296.988 122.633 C 297.141 123.146,293.306 126.185,292.842 125.919 C 292.589 125.774,292.517 125.804,292.681 125.985 C 293.139 126.489,291.029 128.489,290.287 128.254 C 289.821 128.106,289.783 128.148,290.146 128.410 C 290.544 128.697,290.525 129.050,290.048 130.192 C 289.255 132.091,289.308 133.062,290.319 135.156 C 290.786 136.123,291.186 137.178,291.208 137.500 C 291.230 137.822,291.446 138.046,291.690 137.998 C 292.284 137.879,294.621 141.726,294.285 142.269 C 294.139 142.506,294.191 142.593,294.399 142.464 C 294.905 142.152,296.215 144.409,295.861 144.983 C 295.691 145.257,295.754 145.327,296.022 145.162 C 296.806 144.677,303.433 158.790,302.978 159.976 C 302.849 160.312,302.907 160.487,303.106 160.363 C 303.306 160.240,304.169 162.296,305.025 164.933 C 311.936 186.225,312.319 207.696,306.195 230.563 C 305.749 232.227,305.272 233.519,305.134 233.434 C 304.996 233.350,304.867 233.835,304.847 234.511 C 304.768 237.242,296.931 255.009,296.047 254.463 C 295.755 254.283,295.686 254.343,295.861 254.626 C 296.171 255.128,294.937 257.477,294.504 257.210 C 294.353 257.116,294.253 257.345,294.282 257.719 C 294.312 258.095,294.105 258.350,293.819 258.291 C 293.534 258.232,293.410 258.360,293.544 258.576 C 294.048 259.392,292.978 260.647,292.258 260.084 C 291.675 259.628,291.659 259.644,292.114 260.226 C 292.655 260.917,290.912 264.286,290.231 263.865 C 290.066 263.763,289.956 263.986,289.986 264.360 C 290.015 264.735,289.808 264.991,289.522 264.932 C 289.237 264.873,289.121 265.012,289.262 265.242 C 289.601 265.789,288.702 266.861,288.177 266.537 C 287.935 266.388,287.887 266.476,288.059 266.754 C 288.420 267.338,287.557 268.441,287.005 268.099 C 286.763 267.950,286.716 268.038,286.887 268.316 C 287.484 269.281,286.307 270.018,285.393 269.252 C 284.941 268.873,284.701 268.721,284.860 268.914 C 285.019 269.106,284.931 269.544,284.665 269.886 C 284.241 270.429,284.262 270.443,284.829 270.001 C 285.285 269.644,285.556 269.620,285.741 269.920 C 286.083 270.474,285.191 271.552,284.661 271.224 C 284.437 271.086,284.361 271.146,284.492 271.357 C 284.822 271.892,282.455 274.676,281.939 274.357 C 281.709 274.215,281.627 274.271,281.757 274.482 C 282.053 274.961,279.748 277.818,279.292 277.536 C 279.110 277.423,278.833 277.537,278.678 277.788 C 278.488 278.094,278.576 278.147,278.944 277.947 C 279.245 277.782,277.606 279.537,275.300 281.846 C 271.513 285.640,271.042 285.993,270.417 285.503 C 269.800 285.019,269.780 285.029,270.226 285.600 C 270.796 286.330,268.674 288.522,267.875 288.028 C 267.645 287.886,267.567 287.947,267.701 288.164 C 268.029 288.695,266.186 290.386,265.644 290.051 C 265.408 289.905,265.263 289.954,265.322 290.160 C 265.479 290.707,261.415 293.850,260.935 293.553 C 260.711 293.415,260.576 293.534,260.635 293.819 C 260.694 294.103,260.441 294.313,260.074 294.284 C 259.706 294.256,259.443 294.432,259.488 294.675 C 259.533 294.918,259.265 295.093,258.891 295.064 C 258.517 295.034,258.297 295.148,258.401 295.317 C 258.761 295.899,249.423 301.344,248.763 300.936 C 248.468 300.754,248.425 300.836,248.637 301.178 C 248.871 301.557,248.777 301.626,248.286 301.438 C 247.834 301.265,247.707 301.328,247.895 301.633 C 248.084 301.938,247.956 302.002,247.505 301.829 C 247.136 301.687,246.930 301.727,247.048 301.917 C 247.322 302.361,246.154 302.818,245.608 302.480 C 245.379 302.339,245.303 302.403,245.439 302.623 C 245.752 303.130,239.575 305.990,238.805 305.694 C 238.495 305.575,238.337 305.634,238.456 305.826 C 238.574 306.017,238.100 306.383,237.402 306.638 C 232.248 308.525,229.418 309.347,228.731 309.156 C 228.162 308.998,228.082 309.039,228.454 309.297 C 229.360 309.926,219.937 312.184,210.742 313.542 C 204.161 314.514,186.612 314.515,179.774 313.543 C 171.216 312.328,158.274 309.037,158.787 308.207 C 158.896 308.030,158.606 307.985,158.143 308.106 C 157.515 308.270,157.380 308.195,157.616 307.814 C 157.828 307.471,157.781 307.395,157.475 307.585 C 156.882 307.951,154.221 307.080,154.509 306.614 C 154.629 306.419,154.482 306.353,154.182 306.469 C 152.605 307.074,131.576 295.975,132.246 294.891 C 132.365 294.698,132.234 294.626,131.954 294.731 C 130.877 295.135,120.073 286.501,120.704 285.741 C 120.961 285.431,120.902 285.286,120.519 285.286 C 120.209 285.286,120.047 285.433,120.157 285.612 C 120.268 285.791,120.207 285.938,120.022 285.938 C 119.433 285.938,117.161 283.360,117.474 283.047 C 117.639 282.882,117.510 282.806,117.188 282.878 C 116.863 282.950,116.649 282.777,116.709 282.490 C 116.768 282.206,116.645 282.079,116.435 282.209 C 115.998 282.479,113.422 279.778,113.584 279.219 C 113.643 279.015,113.535 278.945,113.343 279.063 C 113.152 279.182,112.681 278.931,112.296 278.506 C 111.912 278.082,111.740 277.734,111.914 277.734 C 112.088 277.734,111.916 277.387,111.532 276.962 C 111.147 276.538,110.690 276.279,110.514 276.387 C 110.146 276.615,108.350 274.295,108.496 273.781 C 108.550 273.592,108.427 273.481,108.222 273.535 C 107.666 273.681,104.651 269.906,104.945 269.431 C 105.085 269.205,105.016 269.133,104.792 269.272 C 104.255 269.603,101.055 265.349,101.409 264.776 C 101.565 264.524,101.510 264.439,101.282 264.580 C 100.762 264.902,97.935 260.654,98.289 260.081 C 98.448 259.823,98.382 259.754,98.127 259.912 C 97.593 260.242,96.737 258.742,97.113 258.135 C 97.277 257.869,97.212 257.799,96.952 257.960 C 96.415 258.292,95.171 256.014,95.552 255.397 C 95.715 255.133,95.648 255.066,95.385 255.229 C 94.923 255.514,92.605 251.196,89.805 244.833 C 81.814 226.674,78.799 203.109,81.854 182.675 C 83.114 174.243,86.698 161.028,87.578 161.571 C 87.843 161.735,87.901 161.661,87.728 161.381 C 87.361 160.788,88.233 158.127,88.699 158.415 C 88.894 158.536,88.959 158.389,88.844 158.088 C 88.461 157.090,94.270 144.714,94.930 145.122 C 95.145 145.255,95.194 145.069,95.046 144.683 C 94.858 144.192,94.928 144.098,95.306 144.332 C 95.646 144.542,95.730 144.501,95.552 144.212 C 95.171 143.595,96.415 141.317,96.952 141.649 C 97.212 141.810,97.277 141.740,97.113 141.475 C 96.737 140.867,97.593 139.368,98.127 139.698 C 98.389 139.860,98.447 139.785,98.275 139.506 C 97.947 138.975,99.522 136.228,99.989 136.517 C 100.161 136.623,100.278 136.405,100.249 136.031 C 100.219 135.655,100.427 135.400,100.713 135.459 C 100.997 135.518,101.118 135.385,100.981 135.163 C 100.636 134.606,102.305 132.352,102.825 132.673 C 103.074 132.827,103.133 132.750,102.968 132.485 C 102.612 131.908,104.642 129.223,105.182 129.556 C 105.406 129.695,105.482 129.634,105.350 129.421 C 105.012 128.873,106.215 127.276,106.728 127.593 C 106.973 127.744,107.040 127.674,106.888 127.427 C 106.569 126.912,108.855 124.203,109.504 124.327 C 109.755 124.375,109.921 124.207,109.873 123.955 C 109.679 122.942,115.251 117.566,116.298 117.756 C 116.840 117.854,117.175 117.826,117.044 117.695 C 116.912 117.563,117.019 117.175,117.282 116.833 C 117.617 116.396,117.471 116.431,116.790 116.948 C 116.257 117.354,116.757 116.781,117.902 115.675 C 119.048 114.569,120.173 113.781,120.404 113.924 C 120.642 114.071,120.711 114.001,120.564 113.764 C 120.240 113.238,122.211 111.639,122.763 111.980 C 122.988 112.119,123.051 112.042,122.905 111.806 C 122.589 111.293,124.186 110.090,124.733 110.428 C 124.946 110.560,125.004 110.478,124.860 110.246 C 124.522 109.699,126.809 108.068,127.401 108.434 C 127.672 108.601,127.750 108.544,127.595 108.293 C 127.274 107.774,129.528 106.105,130.085 106.450 C 130.307 106.587,130.440 106.466,130.381 106.181 C 130.322 105.897,130.574 105.687,130.942 105.716 C 131.309 105.744,131.573 105.568,131.528 105.325 C 131.482 105.082,131.709 104.883,132.031 104.883 C 132.354 104.883,132.569 105.116,132.510 105.400 C 132.451 105.685,132.591 105.801,132.822 105.658 C 133.116 105.476,133.119 105.252,132.829 104.902 C 132.207 104.153,140.947 98.889,141.869 99.458 C 142.114 99.610,142.201 99.556,142.065 99.336 C 141.762 98.847,143.652 97.940,144.230 98.298 C 144.462 98.441,144.544 98.384,144.413 98.171 C 144.085 97.641,148.605 95.519,149.235 95.908 C 149.544 96.100,149.633 96.057,149.471 95.795 C 148.576 94.347,174.031 86.922,177.298 87.678 C 178.066 87.856,178.175 87.816,177.734 87.518 C 177.412 87.300,177.324 87.118,177.539 87.115 C 177.754 87.111,180.391 86.846,183.398 86.527 C 189.076 85.924,202.483 85.803,207.031 86.314 C 208.428 86.471,209.273 86.626,208.910 86.659 C 208.546 86.692,208.141 86.894,208.009 87.108 C 207.860 87.349,208.187 87.335,208.864 87.072 C 212.675 85.593,233.048 90.280,243.941 95.143 C 248.742 97.286,248.592 96.974,246.001 99.429 C 244.875 100.495,244.469 100.796,245.097 100.098 C 245.726 99.399,246.100 98.828,245.930 98.828 C 245.610 98.828,243.811 100.950,244.117 100.967 C 244.211 100.972,243.797 101.814,243.197 102.838 C 242.120 104.676,242.055 105.421,242.692 108.601 C 242.883 109.554,243.385 110.186,243.766 109.951 C 243.959 109.832,244.662 110.015,245.327 110.359 C 246.382 110.905,247.194 110.932,251.686 110.576 C 254.519 110.351,262.813 109.715,270.117 109.162 C 277.422 108.609,283.997 107.998,284.729 107.804 C 285.461 107.610,286.235 107.560,286.449 107.692 C 286.664 107.825,286.729 107.754,286.593 107.534 C 286.292 107.048,287.645 105.744,288.041 106.140 C 288.196 106.295,288.195 106.090,288.040 105.686 C 287.865 105.229,287.907 105.042,288.150 105.193 C 288.587 105.462,288.244 102.451,287.747 101.646 C 287.298 100.920,287.852 100.263,288.477 100.781 C 288.854 101.095,289.071 101.084,289.283 100.740 C 289.459 100.455,289.409 100.372,289.156 100.528 C 288.927 100.670,288.664 100.565,288.573 100.295 C 288.442 99.904,288.289 99.903,287.821 100.290 C 287.240 100.768,286.719 100.590,286.719 99.912 C 286.719 99.720,286.922 99.689,287.170 99.842 C 287.451 100.016,287.515 99.949,287.338 99.663 C 287.183 99.412,286.910 99.296,286.732 99.406 C 286.278 99.687,283.864 95.823,284.177 95.317 C 284.318 95.089,284.200 94.951,283.916 95.010 C 283.631 95.069,283.398 94.854,283.398 94.531 C 283.398 94.209,283.626 93.992,283.903 94.049 C 284.519 94.174,283.876 92.794,283.103 92.330 C 282.792 92.143,282.815 92.281,283.167 92.715 C 283.540 93.174,283.589 93.521,283.320 93.790 C 282.816 94.293,277.955 86.919,278.359 86.265 C 278.521 86.003,278.465 85.923,278.223 86.072 C 277.696 86.398,272.931 79.020,273.292 78.435 C 273.448 78.182,273.380 78.114,273.127 78.271 C 272.593 78.601,271.737 77.102,272.113 76.494 C 272.270 76.239,272.213 76.158,271.979 76.303 C 271.464 76.621,268.199 71.669,268.550 71.102 C 268.692 70.872,268.575 70.732,268.291 70.791 C 267.997 70.852,267.799 70.592,267.832 70.189 C 267.864 69.799,267.797 69.573,267.683 69.687 C 267.569 69.801,267.108 69.637,266.659 69.322 C 264.057 67.500,261.246 69.247,259.216 73.947 C 258.492 75.624,257.810 77.086,257.700 77.196 C 257.343 77.553,250.800 74.505,251.051 74.099 C 251.189 73.875,251.096 73.829,250.834 73.991 C 250.185 74.392,247.589 73.472,247.908 72.955 C 248.063 72.705,247.984 72.649,247.713 72.816 C 247.074 73.211,245.637 72.689,245.953 72.177 C 246.108 71.926,246.032 71.867,245.767 72.031 C 245.521 72.183,243.149 71.609,240.495 70.755 C 221.847 64.754,196.253 62.042,179.492 64.291 M256.057 75.386 C 255.914 75.618,256.100 75.667,256.523 75.508 C 257.129 75.281,257.156 75.332,256.716 75.873 C 256.274 76.416,256.310 76.474,256.982 76.298 C 257.448 76.176,257.674 75.876,257.548 75.547 C 257.306 74.916,256.408 74.819,256.057 75.386 M280.078 87.816 C 280.078 87.990,280.325 88.470,280.627 88.883 C 281.141 89.585,281.163 89.565,280.972 88.567 C 280.790 87.616,280.078 87.017,280.078 87.816 M216.992 88.317 C 216.279 88.655,216.290 88.673,217.121 88.513 C 217.758 88.391,217.971 88.492,217.834 88.851 C 217.701 89.198,217.876 89.302,218.375 89.172 C 219.005 89.007,219.034 88.900,218.569 88.435 C 217.951 87.817,218.032 87.823,216.992 88.317 M241.147 104.004 C 240.723 104.683,240.629 105.512,241.003 105.281 C 241.316 105.088,241.837 103.516,241.588 103.516 C 241.513 103.516,241.315 103.735,241.147 104.004 M243.750 111.263 C 243.750 111.585,243.866 111.733,244.007 111.592 C 244.148 111.451,244.486 111.519,244.758 111.744 C 245.132 112.055,245.204 111.976,245.058 111.416 C 244.829 110.542,243.750 110.416,243.750 111.263 M288.095 135.544 C 287.435 135.775,287.427 135.826,288.017 136.052 C 288.408 136.202,288.674 136.112,288.678 135.828 C 288.682 135.488,288.778 135.501,289.014 135.873 C 289.286 136.301,289.382 136.296,289.557 135.840 C 289.786 135.242,289.260 135.135,288.095 135.544 M138.965 137.793 C 145.034 137.853,154.966 137.853,161.035 137.793 C 167.104 137.732,162.139 137.683,150.000 137.683 C 137.861 137.683,132.896 137.732,138.965 137.793 M196.222 137.793 C 209.290 137.850,230.560 137.850,243.487 137.793 C 256.415 137.736,245.723 137.689,219.727 137.689 C 193.730 137.689,183.153 137.736,196.222 137.793 M270.508 137.891 C 271.583 138.353,271.965 138.353,271.680 137.891 C 271.547 137.676,271.053 137.512,270.582 137.527 C 269.757 137.554,269.755 137.567,270.508 137.891 M272.448 138.302 C 272.353 138.457,272.595 138.667,272.986 138.769 C 273.382 138.873,273.698 138.748,273.698 138.488 C 273.698 137.984,272.733 137.840,272.448 138.302 M123.047 139.104 C 121.865 139.546,120.604 139.930,120.244 139.959 C 119.883 139.988,119.669 140.140,119.766 140.298 C 119.951 140.597,118.457 141.563,117.773 141.588 C 117.559 141.595,117.378 141.777,117.373 141.992 C 117.353 142.758,115.923 144.520,115.522 144.272 C 115.297 144.133,115.229 144.206,115.371 144.436 C 115.668 144.917,115.276 146.165,114.900 145.933 C 114.543 145.712,114.448 146.716,114.213 153.223 L 114.005 158.984 197.432 158.984 L 280.859 158.984 280.847 154.395 C 280.837 150.752,280.669 149.361,280.034 147.656 C 279.594 146.475,279.211 145.209,279.182 144.843 C 279.153 144.477,279.051 144.256,278.956 144.351 C 278.716 144.591,277.734 143.737,277.734 143.288 C 277.734 143.087,277.954 143.055,278.223 143.216 C 278.503 143.384,278.461 143.202,278.125 142.788 C 277.803 142.392,277.580 141.699,277.630 141.249 C 277.719 140.452,277.712 140.451,277.386 141.211 C 277.177 141.696,277.214 142.214,277.483 142.578 C 277.721 142.900,277.524 142.829,277.044 142.420 C 276.090 141.606,275.889 141.197,276.660 141.641 C 276.939 141.802,277.011 141.772,276.828 141.572 C 276.652 141.379,276.212 141.219,275.851 141.216 C 275.491 141.213,275.244 140.978,275.303 140.694 C 275.362 140.409,275.249 140.276,275.051 140.398 C 274.854 140.520,273.663 140.138,272.405 139.548 L 270.117 138.477 197.656 138.390 C 125.422 138.303,125.189 138.305,123.047 139.104 M323.307 148.604 C 323.169 148.964,323.217 149.160,323.414 149.038 C 323.611 148.916,323.888 149.184,324.031 149.633 C 324.173 150.082,324.376 150.364,324.480 150.259 C 324.585 150.155,324.420 149.592,324.115 149.008 C 323.652 148.125,323.517 148.057,323.307 148.604 M112.634 155.664 C 112.635 157.383,112.704 158.037,112.787 157.119 C 112.869 156.200,112.868 154.794,112.784 153.994 C 112.700 153.194,112.632 153.945,112.634 155.664 M130.186 162.738 C 130.501 163.053,140.935 163.101,141.248 162.789 C 141.372 162.665,138.876 162.545,135.702 162.523 C 132.527 162.500,130.045 162.597,130.186 162.738 M143.457 162.769 C 143.833 162.868,144.448 162.868,144.824 162.769 C 145.200 162.671,144.893 162.591,144.141 162.591 C 143.389 162.591,143.081 162.671,143.457 162.769 M146.421 162.916 C 146.997 163.146,147.574 163.142,147.984 162.903 C 148.479 162.614,148.262 162.527,147.070 162.537 C 145.704 162.548,145.622 162.595,146.421 162.916 M149.333 162.744 C 149.659 163.070,154.628 163.080,154.953 162.755 C 155.093 162.615,153.831 162.500,152.148 162.500 C 150.465 162.500,149.198 162.610,149.333 162.744 M155.575 162.737 C 155.882 163.043,160.459 163.109,160.757 162.811 C 160.873 162.695,159.698 162.573,158.145 162.541 C 156.592 162.510,155.436 162.597,155.575 162.737 M162.409 162.783 C 163.111 162.870,164.166 162.868,164.753 162.779 C 165.340 162.690,164.766 162.619,163.477 162.621 C 162.188 162.623,161.707 162.696,162.409 162.783 M180.715 162.903 C 180.982 163.169,181.437 163.177,182.063 162.927 C 182.951 162.572,182.926 162.548,181.660 162.525 C 180.735 162.508,180.439 162.626,180.715 162.903 M183.930 162.849 C 184.415 163.156,185.938 163.005,185.938 162.650 C 185.938 162.567,185.366 162.503,184.668 162.506 C 183.805 162.510,183.569 162.620,183.930 162.849 M187.207 162.769 C 187.583 162.868,188.198 162.868,188.574 162.769 C 188.950 162.671,188.643 162.591,187.891 162.591 C 187.139 162.591,186.831 162.671,187.207 162.769 M190.162 162.838 C 190.637 163.139,192.578 162.988,192.578 162.650 C 192.578 162.567,191.919 162.503,191.113 162.506 C 190.180 162.510,189.835 162.630,190.162 162.838 M193.457 162.935 C 193.869 163.167,194.388 163.181,194.765 162.971 C 195.235 162.707,195.066 162.612,194.082 162.586 C 193.030 162.557,192.907 162.626,193.457 162.935 M196.221 162.758 C 196.495 163.031,202.026 162.948,202.308 162.666 C 202.399 162.575,201.009 162.500,199.219 162.500 C 197.428 162.500,196.080 162.616,196.221 162.758 M202.841 162.737 C 203.124 163.020,224.650 162.980,224.934 162.697 C 225.042 162.588,220.062 162.500,213.867 162.500 C 207.673 162.500,202.711 162.607,202.841 162.737 M233.766 162.854 C 233.887 163.049,234.337 163.116,234.766 163.004 C 235.841 162.723,235.744 162.500,234.547 162.500 C 233.997 162.500,233.646 162.659,233.766 162.854 M236.768 162.680 C 237.055 162.966,242.177 163.031,242.456 162.752 C 242.595 162.613,241.331 162.500,239.648 162.500 C 237.965 162.500,236.669 162.581,236.768 162.680 M243.657 162.776 C 244.143 162.870,244.846 162.866,245.219 162.768 C 245.593 162.671,245.195 162.594,244.336 162.599 C 243.477 162.603,243.171 162.683,243.657 162.776 M247.363 162.785 C 248.169 162.869,249.487 162.869,250.293 162.785 C 251.099 162.700,250.439 162.631,248.828 162.631 C 247.217 162.631,246.558 162.700,247.363 162.785 M252.057 162.734 C 252.371 163.048,259.727 163.060,260.040 162.747 C 260.175 162.611,258.382 162.500,256.055 162.500 C 253.727 162.500,251.928 162.605,252.057 162.734 M261.133 162.732 C 262.988 163.030,265.625 163.068,265.625 162.796 C 265.625 162.633,264.438 162.524,262.988 162.553 C 261.538 162.582,260.703 162.663,261.133 162.732 M269.141 162.876 C 270.967 163.011,272.628 162.981,272.832 162.810 C 273.036 162.640,271.542 162.530,269.512 162.566 L 265.820 162.632 269.141 162.876 M276.254 162.712 C 276.685 163.143,278.473 163.275,278.709 162.894 C 278.856 162.656,278.375 162.500,277.497 162.500 C 276.697 162.500,276.137 162.596,276.254 162.712 M279.435 162.768 C 279.828 163.161,281.250 163.206,281.250 162.825 C 281.250 162.646,280.781 162.500,280.208 162.500 C 279.635 162.500,279.287 162.621,279.435 162.768 M167.815 165.293 C 168.008 168.050,168.337 168.176,168.305 165.481 C 168.290 164.271,168.143 163.281,167.976 163.281 C 167.810 163.281,167.738 164.187,167.815 165.293 M114.063 207.017 C 114.063 255.164,113.929 252.612,116.617 255.806 C 117.286 256.602,117.495 257.231,117.359 258.046 C 117.224 258.856,117.277 259.018,117.544 258.612 C 117.749 258.300,117.828 257.900,117.718 257.724 C 117.609 257.547,118.359 257.934,119.385 258.585 C 123.830 261.404,123.088 261.328,146.346 261.328 C 165.266 261.328,167.248 261.269,167.034 260.710 C 166.904 260.370,166.797 238.398,166.797 211.882 L 166.797 163.672 140.430 163.672 L 114.063 163.672 114.063 207.017 M171.875 212.500 L 171.875 261.328 198.242 261.328 L 224.609 261.328 224.609 212.500 L 224.609 163.672 198.242 163.672 L 171.875 163.672 171.875 212.500 M228.906 212.513 L 228.906 261.354 249.707 261.244 L 270.508 261.133 272.795 260.061 C 274.054 259.472,275.284 259.104,275.530 259.245 C 275.776 259.385,275.850 259.360,275.694 259.188 C 275.539 259.016,276.274 257.933,277.327 256.780 C 281.138 252.610,280.859 256.541,280.859 207.017 L 280.859 163.672 254.883 163.672 L 228.906 163.672 228.906 212.513 M225.146 168.945 C 225.147 171.309,225.211 172.225,225.289 170.982 C 225.367 169.739,225.366 167.805,225.287 166.685 C 225.209 165.565,225.145 166.582,225.146 168.945 M112.606 167.188 C 112.606 168.154,112.683 168.550,112.776 168.066 C 112.869 167.583,112.869 166.792,112.776 166.309 C 112.683 165.825,112.606 166.221,112.606 167.188 M171.278 189.844 C 171.278 203.271,171.327 208.765,171.387 202.051 C 171.446 195.337,171.446 184.351,171.387 177.637 C 171.327 170.923,171.278 176.416,171.278 189.844 M112.599 170.508 C 112.603 171.367,112.683 171.673,112.776 171.187 C 112.870 170.701,112.866 169.998,112.768 169.624 C 112.671 169.251,112.594 169.648,112.599 170.508 M228.303 184.570 C 228.303 193.164,228.355 196.624,228.418 192.259 C 228.480 187.894,228.480 180.863,228.417 176.634 C 228.354 172.405,228.303 175.977,228.303 184.570 M112.674 184.570 C 112.674 191.445,112.728 194.203,112.792 190.698 C 112.857 187.193,112.857 181.568,112.792 178.198 C 112.727 174.828,112.674 177.695,112.674 184.570 M306.250 173.633 C 306.250 174.170,306.317 174.609,306.400 174.609 C 306.482 174.609,306.634 174.170,306.736 173.633 C 306.839 173.096,306.772 172.656,306.586 172.656 C 306.401 172.656,306.250 173.096,306.250 173.633 M225.146 177.930 C 225.147 180.293,225.211 181.209,225.289 179.966 C 225.367 178.723,225.366 176.789,225.287 175.669 C 225.209 174.549,225.145 175.566,225.146 177.930 M155.419 178.665 C 155.866 179.070,156.121 179.581,155.985 179.800 C 155.848 180.022,155.930 180.081,156.170 179.932 C 157.428 179.155,158.645 200.715,157.644 206.049 C 157.335 207.694,155.580 209.892,154.810 209.596 C 154.505 209.480,154.351 209.538,154.468 209.726 C 154.890 210.409,152.702 210.536,140.430 210.540 C 122.864 210.546,124.219 211.950,124.219 193.737 C 124.219 180.134,124.288 179.643,126.168 179.940 C 126.909 180.057,127.344 179.957,127.344 179.669 C 127.344 179.418,127.072 179.318,126.738 179.446 C 126.326 179.604,126.224 179.523,126.422 179.195 C 126.614 178.874,126.489 178.892,126.052 179.247 C 125.688 179.542,125.391 179.627,125.391 179.435 C 125.391 177.551,153.395 176.833,155.419 178.665 M212.485 178.313 C 215.372 179.805,215.234 178.691,215.234 200.607 C 215.234 219.635,215.152 221.721,214.417 221.267 C 214.227 221.149,214.168 221.306,214.287 221.615 C 215.072 223.660,212.853 224.016,198.544 224.136 C 179.298 224.297,181.253 226.931,181.251 200.842 C 181.250 180.051,181.389 178.426,183.117 179.089 C 183.401 179.199,183.534 179.125,183.411 178.926 C 182.600 177.614,210.016 177.036,212.485 178.313 M129.204 178.401 C 129.690 178.495,130.393 178.491,130.766 178.393 C 131.140 178.296,130.742 178.219,129.883 178.224 C 129.023 178.228,128.718 178.308,129.204 178.401 M137.035 178.417 C 140.110 178.483,145.032 178.483,147.973 178.417 C 150.914 178.351,148.398 178.297,142.383 178.297 C 136.367 178.297,133.961 178.351,137.035 178.417 M191.895 178.417 C 195.493 178.482,201.382 178.482,204.980 178.417 C 208.579 178.353,205.635 178.300,198.438 178.300 C 191.240 178.300,188.296 178.353,191.895 178.417 M182.552 180.273 C 182.552 180.596,182.757 180.859,183.008 180.859 C 183.258 180.859,183.464 180.596,183.464 180.273 C 183.464 179.951,183.258 179.688,183.008 179.688 C 182.757 179.688,182.552 179.951,182.552 180.273 M156.413 191.992 C 156.413 196.074,156.471 197.691,156.541 195.585 C 156.612 193.479,156.612 190.139,156.541 188.163 C 156.470 186.187,156.412 187.910,156.413 191.992 M225.136 190.234 C 225.136 192.061,225.204 192.808,225.286 191.895 C 225.368 190.981,225.368 189.487,225.286 188.574 C 225.204 187.661,225.136 188.408,225.136 190.234 M124.738 190.039 C 124.739 191.543,124.810 192.110,124.894 191.300 C 124.979 190.489,124.978 189.259,124.891 188.566 C 124.805 187.872,124.736 188.535,124.738 190.039 M170.419 192.188 C 170.419 193.154,170.495 193.550,170.588 193.066 C 170.681 192.583,170.681 191.792,170.588 191.309 C 170.495 190.825,170.419 191.221,170.419 192.188 M225.175 206.250 C 225.175 213.232,225.228 216.089,225.292 212.598 C 225.357 209.106,225.357 203.394,225.292 199.902 C 225.228 196.411,225.175 199.268,225.175 206.250 M214.063 195.875 C 214.063 196.400,214.206 196.918,214.382 197.027 C 214.558 197.135,214.626 196.706,214.533 196.073 C 214.329 194.677,214.063 194.565,214.063 195.875 M112.599 198.633 C 112.603 199.492,112.683 199.798,112.776 199.312 C 112.870 198.826,112.866 198.123,112.768 197.749 C 112.671 197.376,112.594 197.773,112.599 198.633 M112.664 208.008 C 112.664 212.305,112.721 214.116,112.791 212.032 C 112.861 209.949,112.861 206.434,112.792 204.220 C 112.722 202.006,112.664 203.711,112.664 208.008 M156.349 201.758 C 156.353 202.617,156.433 202.923,156.526 202.437 C 156.620 201.951,156.616 201.248,156.518 200.874 C 156.421 200.501,156.344 200.898,156.349 201.758 M228.306 218.945 C 228.306 229.258,228.356 233.420,228.418 228.196 C 228.479 222.971,228.479 214.533,228.418 209.446 C 228.356 204.358,228.306 208.633,228.306 218.945 M168.080 204.492 C 168.083 205.566,168.159 205.959,168.249 205.366 C 168.339 204.772,168.336 203.893,168.244 203.413 C 168.151 202.932,168.078 203.418,168.080 204.492 M170.434 207.227 C 170.436 208.516,170.509 208.996,170.596 208.294 C 170.683 207.592,170.681 206.537,170.592 205.950 C 170.502 205.363,170.431 205.938,170.434 207.227 M168.059 209.766 C 168.059 210.518,168.140 210.825,168.238 210.449 C 168.336 210.073,168.336 209.458,168.238 209.082 C 168.140 208.706,168.059 209.014,168.059 209.766 M57.403 211.045 C 57.593 212.655,57.601 212.663,57.734 211.376 C 57.808 210.651,57.721 209.908,57.539 209.726 C 57.357 209.544,57.296 210.138,57.403 211.045 M146.150 209.808 C 146.840 210.246,147.656 210.249,147.656 209.814 C 147.656 209.626,147.198 209.473,146.638 209.473 C 145.919 209.473,145.776 209.571,146.150 209.808 M170.438 212.891 C 170.438 214.287,170.508 214.858,170.595 214.160 C 170.682 213.462,170.682 212.319,170.595 211.621 C 170.508 210.923,170.438 211.494,170.438 212.891 M171.284 238.086 L 171.289 261.914 196.094 262.109 C 209.736 262.217,221.865 262.217,223.047 262.109 L 225.195 261.914 225.221 259.180 L 225.247 256.445 225.106 259.082 L 224.966 261.719 198.228 261.719 L 171.490 261.719 171.385 237.988 L 171.280 214.258 171.284 238.086 M267.713 216.135 C 270.265 217.808,270.309 218.074,270.311 231.556 C 270.313 249.219,271.625 247.804,255.089 247.974 C 243.471 248.093,240.598 247.867,241.208 246.880 C 241.342 246.662,241.195 246.590,240.871 246.714 C 240.197 246.973,239.277 245.522,239.691 244.853 C 239.849 244.598,239.791 244.518,239.554 244.664 C 238.775 245.146,238.672 243.636,238.672 231.706 C 238.673 214.231,237.754 215.148,255.096 215.317 C 265.447 215.418,266.749 215.502,267.713 216.135 M112.599 217.383 C 112.603 218.242,112.683 218.548,112.776 218.062 C 112.870 217.576,112.866 216.873,112.768 216.499 C 112.671 216.126,112.594 216.523,112.599 217.383 M112.674 231.445 C 112.674 238.320,112.728 241.078,112.792 237.573 C 112.857 234.068,112.857 228.443,112.792 225.073 C 112.727 221.703,112.674 224.570,112.674 231.445 M209.945 222.815 C 209.243 223.328,209.263 223.351,210.257 223.161 C 210.841 223.049,211.223 222.802,211.105 222.612 C 210.830 222.167,210.831 222.167,209.945 222.815 M225.152 227.539 C 225.152 230.332,225.215 231.423,225.290 229.964 C 225.365 228.505,225.365 226.220,225.289 224.886 C 225.213 223.552,225.151 224.746,225.152 227.539 M170.411 226.758 C 170.415 227.617,170.495 227.923,170.589 227.437 C 170.682 226.951,170.679 226.248,170.581 225.874 C 170.483 225.501,170.407 225.898,170.411 226.758 M225.141 236.328 C 225.141 238.369,225.207 239.204,225.287 238.184 C 225.368 237.163,225.368 235.493,225.287 234.473 C 225.207 233.452,225.141 234.287,225.141 236.328 M228.208 249.902 C 228.163 256.616,228.257 262.110,228.418 262.110 C 228.579 262.110,228.666 258.550,228.611 254.200 C 228.421 239.131,228.292 237.751,228.208 249.902 M225.146 245.117 C 225.147 247.480,225.211 248.397,225.289 247.154 C 225.367 245.911,225.366 243.977,225.287 242.857 C 225.209 241.737,225.145 242.754,225.146 245.117 M63.932 242.057 C 63.561 242.429,63.610 243.666,64.006 243.910 C 64.190 244.024,64.321 243.595,64.299 242.958 C 64.276 242.320,64.243 241.798,64.225 241.798 C 64.207 241.797,64.076 241.914,63.932 242.057 M112.599 245.508 C 112.603 246.367,112.683 246.673,112.776 246.187 C 112.870 245.701,112.866 244.998,112.768 244.624 C 112.671 244.251,112.594 244.648,112.599 245.508 M255.469 247.292 C 254.808 247.486,255.367 247.591,257.194 247.617 C 258.680 247.639,259.823 247.593,259.733 247.515 C 259.353 247.184,256.367 247.028,255.469 247.292 M225.091 254.297 C 225.091 255.049,225.171 255.356,225.269 254.980 C 225.368 254.604,225.368 253.989,225.269 253.613 C 225.171 253.237,225.091 253.545,225.091 254.297 M170.403 260.938 C 170.403 261.689,170.484 261.997,170.582 261.621 C 170.680 261.245,170.680 260.630,170.582 260.254 C 170.484 259.878,170.403 260.186,170.403 260.938 M122.848 261.334 C 122.713 261.553,122.468 261.648,122.304 261.547 C 122.140 261.446,122.005 261.618,122.005 261.931 C 122.005 262.724,122.381 262.640,122.956 261.719 C 123.225 261.289,123.365 260.938,123.269 260.938 C 123.172 260.938,122.983 261.116,122.848 261.334 M272.721 261.280 C 272.306 261.543,272.332 261.661,272.851 261.860 C 273.713 262.190,273.698 262.196,273.698 261.523 C 273.698 260.860,273.472 260.804,272.721 261.280 M126.562 262.012 C 126.562 262.278,141.117 262.273,159.180 262.001 C 163.047 261.943,157.290 261.856,146.387 261.807 C 135.483 261.758,126.562 261.851,126.562 262.012 M229.747 261.908 C 230.007 262.169,267.630 262.188,267.890 261.927 C 268.005 261.813,259.427 261.719,248.828 261.719 C 238.229 261.719,229.643 261.804,229.747 261.908 M277.481 278.392 C 277.628 278.539,277.174 279.286,276.472 280.052 L 275.195 281.445 276.645 280.114 C 277.903 278.959,278.240 278.125,277.451 278.125 C 277.320 278.125,277.334 278.245,277.481 278.392 M295.058 293.816 C 294.432 294.507,294.453 294.511,295.642 293.917 C 297.029 293.226,297.129 293.099,296.291 293.099 C 295.969 293.099,295.415 293.421,295.058 293.816 M121.875 317.601 C 121.875 317.829,122.058 317.901,122.283 317.763 C 122.507 317.624,122.990 317.746,123.357 318.033 C 123.957 318.503,123.970 318.487,123.487 317.871 C 122.898 317.119,121.875 316.948,121.875 317.601 M157.144 332.734 C 156.803 332.951,156.885 333.168,157.437 333.513 C 157.897 333.800,158.203 333.833,158.203 333.597 C 158.203 333.380,158.017 333.203,157.789 333.203 C 157.562 333.203,157.484 333.027,157.617 332.813 C 157.904 332.348,157.784 332.328,157.144 332.734 " stroke="none" fill="#fbfbfb" fill-rule="evenodd"></path><path id="path1" d="M194.438 63.167 C 194.924 63.260,195.627 63.257,196.001 63.159 C 196.374 63.061,195.977 62.985,195.117 62.989 C 194.258 62.993,193.952 63.073,194.438 63.167 M184.863 63.551 C 185.239 63.649,185.854 63.649,186.230 63.551 C 186.606 63.452,186.299 63.372,185.547 63.372 C 184.795 63.372,184.487 63.452,184.863 63.551 M180.566 63.941 C 180.942 64.039,181.558 64.039,181.934 63.941 C 182.310 63.843,182.002 63.763,181.250 63.763 C 180.498 63.763,180.190 63.843,180.566 63.941 M191.504 86.217 C 192.095 86.307,193.062 86.307,193.652 86.217 C 194.243 86.128,193.760 86.055,192.578 86.055 C 191.396 86.055,190.913 86.128,191.504 86.217 M198.931 86.218 C 199.525 86.308,200.404 86.305,200.884 86.212 C 201.365 86.120,200.879 86.046,199.805 86.049 C 198.730 86.052,198.337 86.128,198.931 86.218 M280.685 90.527 C 282.773 93.745,283.325 94.531,283.495 94.531 C 283.599 94.531,283.370 94.048,282.987 93.457 C 280.899 90.239,280.347 89.453,280.177 89.453 C 280.073 89.453,280.302 89.937,280.685 90.527 M107.983 93.848 L 106.836 95.117 108.105 93.970 C 109.289 92.900,109.555 92.578,109.253 92.578 C 109.186 92.578,108.614 93.149,107.983 93.848 M242.969 95.117 C 243.506 95.424,244.121 95.675,244.336 95.675 C 244.551 95.675,244.287 95.424,243.750 95.117 C 243.213 94.810,242.598 94.559,242.383 94.559 C 242.168 94.559,242.432 94.810,242.969 95.117 M143.262 98.270 C 141.747 99.092,141.919 99.376,143.457 98.593 C 144.930 97.844,145.190 97.650,144.694 97.672 C 144.497 97.680,143.853 97.950,143.262 98.270 M101.349 99.707 L 99.805 101.367 101.465 99.823 C 103.009 98.387,103.305 98.047,103.009 98.047 C 102.945 98.047,102.198 98.794,101.349 99.707 M244.922 100.195 C 243.973 101.162,243.285 101.953,243.392 101.953 C 243.499 101.953,244.364 101.162,245.313 100.195 C 246.261 99.229,246.950 98.438,246.842 98.438 C 246.735 98.438,245.871 99.229,244.922 100.195 M138.184 101.005 C 136.723 101.797,136.812 102.127,138.281 101.367 C 138.926 101.034,139.453 100.678,139.453 100.576 C 139.453 100.325,139.411 100.339,138.184 101.005 M288.372 103.516 C 288.372 104.268,288.452 104.575,288.551 104.199 C 288.649 103.823,288.649 103.208,288.551 102.832 C 288.452 102.456,288.372 102.764,288.372 103.516 M94.141 106.836 C 93.192 107.803,92.503 108.594,92.611 108.594 C 92.718 108.594,93.582 107.803,94.531 106.836 C 95.480 105.869,96.169 105.078,96.061 105.078 C 95.954 105.078,95.089 105.869,94.141 106.836 M129.102 106.870 L 127.930 107.877 129.199 107.037 C 129.897 106.575,130.469 106.121,130.469 106.028 C 130.469 105.736,130.303 105.838,129.102 106.870 M243.835 109.863 C 244.440 110.454,245.151 110.932,245.416 110.926 C 245.681 110.919,245.547 110.719,245.117 110.482 C 244.688 110.244,243.976 109.766,243.536 109.419 C 243.096 109.073,243.230 109.272,243.835 109.863 M273.145 109.254 C 273.521 109.352,274.136 109.352,274.512 109.254 C 274.888 109.155,274.580 109.075,273.828 109.075 C 273.076 109.075,272.769 109.155,273.145 109.254 M90.604 110.840 L 89.258 112.305 90.723 110.959 C 92.086 109.706,92.367 109.375,92.069 109.375 C 92.004 109.375,91.344 110.034,90.604 110.840 M123.242 111.176 L 121.680 112.574 123.340 111.332 C 124.769 110.264,125.284 109.749,124.902 109.771 C 124.849 109.775,124.102 110.407,123.242 111.176 M261.816 110.035 C 262.192 110.133,262.808 110.133,263.184 110.035 C 263.560 109.937,263.252 109.856,262.500 109.856 C 261.748 109.856,261.440 109.937,261.816 110.035 M256.934 110.432 C 257.417 110.525,258.208 110.525,258.691 110.432 C 259.175 110.339,258.779 110.263,257.813 110.263 C 256.846 110.263,256.450 110.339,256.934 110.432 M251.860 110.823 C 252.346 110.917,253.049 110.913,253.423 110.815 C 253.796 110.717,253.398 110.641,252.539 110.645 C 251.680 110.650,251.374 110.730,251.860 110.823 M116.587 116.895 L 114.648 118.945 116.699 117.007 C 117.827 115.941,118.750 115.018,118.750 114.956 C 118.750 114.665,118.388 114.989,116.587 116.895 M302.441 120.191 C 302.817 120.289,303.433 120.289,303.809 120.191 C 304.185 120.093,303.877 120.013,303.125 120.013 C 302.373 120.013,302.065 120.093,302.441 120.191 M81.333 122.949 C 79.495 125.685,79.204 126.172,79.412 126.172 C 79.500 126.172,80.391 124.941,81.391 123.438 C 82.391 121.934,83.127 120.703,83.025 120.703 C 82.924 120.703,82.163 121.714,81.333 122.949 M109.949 123.535 L 107.617 125.977 110.059 123.645 C 112.326 121.479,112.679 121.094,112.390 121.094 C 112.330 121.094,111.231 122.192,109.949 123.535 M308.015 122.754 C 308.854 123.774,309.603 124.609,309.680 124.609 C 309.959 124.609,308.262 122.439,307.389 121.680 C 306.895 121.250,307.177 121.733,308.015 122.754 M104.086 130.371 C 102.478 132.395,100.918 134.763,101.834 133.789 C 102.702 132.867,106.246 128.125,106.067 128.125 C 105.959 128.125,105.068 129.136,104.086 130.371 M289.153 132.422 C 289.153 133.174,289.234 133.481,289.332 133.105 C 289.430 132.729,289.430 132.114,289.332 131.738 C 289.234 131.362,289.153 131.670,289.153 132.422 M73.633 135.938 C 73.088 137.012,72.731 137.891,72.838 137.891 C 72.946 137.891,73.479 137.012,74.023 135.938 C 74.568 134.863,74.925 133.984,74.818 133.984 C 74.710 133.984,74.177 134.863,73.633 135.938 M160.059 138.184 C 179.448 138.240,211.177 138.240,230.566 138.184 C 249.956 138.128,234.092 138.082,195.313 138.082 C 156.533 138.082,140.669 138.128,160.059 138.184 M266.895 138.160 C 267.271 138.258,267.886 138.258,268.262 138.160 C 268.638 138.062,268.330 137.981,267.578 137.981 C 266.826 137.981,266.519 138.062,266.895 138.160 M117.364 142.285 L 115.820 143.945 117.480 142.401 C 119.024 140.965,119.320 140.625,119.025 140.625 C 118.961 140.625,118.214 141.372,117.364 142.285 M276.773 142.188 C 277.624 143.154,278.636 144.385,279.021 144.922 C 279.698 145.865,279.698 145.855,279.030 144.622 C 278.650 143.920,277.638 142.689,276.782 141.888 L 275.226 140.430 276.773 142.188 M319.564 141.602 C 319.564 141.816,319.901 142.607,320.313 143.359 C 320.724 144.111,321.061 144.551,321.061 144.336 C 321.061 144.121,320.724 143.330,320.313 142.578 C 319.901 141.826,319.564 141.387,319.564 141.602 M295.105 143.555 C 295.706 144.629,296.379 145.684,296.601 145.898 C 296.822 146.113,296.512 145.410,295.911 144.336 C 295.310 143.262,294.637 142.207,294.415 141.992 C 294.193 141.777,294.504 142.480,295.105 143.555 M114.829 145.732 C 114.382 146.608,114.071 147.469,114.137 147.645 C 114.204 147.822,114.642 147.106,115.112 146.054 C 116.146 143.737,115.957 143.521,114.829 145.732 M323.661 151.172 C 323.805 151.709,324.086 152.412,324.285 152.734 C 324.536 153.142,324.567 153.022,324.385 152.344 C 324.242 151.807,323.961 151.104,323.762 150.781 C 323.511 150.374,323.480 150.493,323.661 151.172 M90.890 152.557 C 89.973 154.482,90.102 154.809,91.061 152.990 C 91.497 152.165,91.784 151.420,91.700 151.335 C 91.615 151.251,91.251 151.801,90.890 152.557 M303.968 162.695 C 303.967 162.910,304.203 163.701,304.492 164.453 C 304.782 165.205,305.024 165.557,305.031 165.234 C 305.037 164.912,304.801 164.121,304.506 163.477 C 304.211 162.832,303.969 162.480,303.968 162.695 M127.079 163.574 C 134.561 163.633,146.690 163.633,154.032 163.574 C 161.375 163.515,155.254 163.466,140.430 163.466 C 125.605 163.466,119.598 163.515,127.079 163.574 M171.665 163.770 C 171.562 164.038,171.525 185.879,171.581 212.305 L 171.683 260.352 171.779 212.014 L 171.875 163.677 198.535 163.574 L 225.195 163.471 198.523 163.376 C 177.474 163.301,171.811 163.384,171.665 163.770 M228.612 212.207 L 228.708 261.133 228.809 212.405 L 228.909 163.677 255.177 163.574 L 281.445 163.471 254.980 163.376 L 228.516 163.281 228.612 212.207 M224.781 175.000 C 224.781 181.123,224.835 183.628,224.901 180.566 C 224.967 177.505,224.967 172.495,224.901 169.434 C 224.835 166.372,224.781 168.877,224.781 175.000 M134.497 178.027 C 138.110 178.091,143.911 178.091,147.388 178.027 C 150.866 177.962,147.910 177.909,140.820 177.909 C 133.730 177.909,130.885 177.962,134.497 178.027 M191.479 178.027 C 195.064 178.091,201.040 178.091,204.760 178.027 C 208.480 177.963,205.547 177.910,198.242 177.910 C 190.938 177.910,187.894 177.962,191.479 178.027 M126.077 179.004 C 125.571 179.487,125.429 179.688,125.762 179.449 C 126.095 179.211,126.719 178.821,127.148 178.582 C 127.578 178.344,127.720 178.143,127.463 178.137 C 127.207 178.130,126.583 178.521,126.077 179.004 M154.297 178.233 C 154.297 178.308,154.868 178.787,155.566 179.298 C 156.352 179.873,156.625 179.968,156.282 179.546 C 155.762 178.905,154.297 177.936,154.297 178.233 M213.956 179.963 C 214.589 180.928,214.666 182.725,214.851 200.764 L 215.053 220.508 215.142 200.977 C 215.235 180.723,215.097 178.906,213.473 178.906 C 213.358 178.906,213.575 179.382,213.956 179.963 M181.342 200.586 C 181.298 211.328,181.391 220.320,181.549 220.569 C 181.809 220.978,181.797 200.151,181.529 186.523 C 181.470 183.516,181.386 189.844,181.342 200.586 M124.392 193.750 C 124.392 200.303,124.446 202.983,124.511 199.707 C 124.576 196.431,124.576 191.069,124.511 187.793 C 124.446 184.517,124.392 187.197,124.392 193.750 M58.684 184.766 C 58.684 185.518,58.765 185.825,58.863 185.449 C 58.961 185.073,58.961 184.458,58.863 184.082 C 58.765 183.706,58.684 184.014,58.684 184.766 M81.731 184.766 C 81.731 185.518,81.812 185.825,81.910 185.449 C 82.008 185.073,82.008 184.458,81.910 184.082 C 81.812 183.706,81.731 184.014,81.731 184.766 M332.122 185.547 C 332.122 186.299,332.202 186.606,332.301 186.230 C 332.399 185.854,332.399 185.239,332.301 184.863 C 332.202 184.487,332.122 184.795,332.122 185.547 M309.466 186.719 C 309.466 187.471,309.546 187.778,309.644 187.402 C 309.743 187.026,309.743 186.411,309.644 186.035 C 309.546 185.659,309.466 185.967,309.466 186.719 M224.762 191.406 C 224.762 194.307,224.824 195.493,224.899 194.043 C 224.974 192.593,224.974 190.220,224.899 188.770 C 224.824 187.319,224.762 188.506,224.762 191.406 M81.341 187.891 C 81.341 188.643,81.421 188.950,81.519 188.574 C 81.618 188.198,81.618 187.583,81.519 187.207 C 81.421 186.831,81.341 187.139,81.341 187.891 M58.294 189.063 C 58.294 189.814,58.374 190.122,58.472 189.746 C 58.571 189.370,58.571 188.755,58.472 188.379 C 58.374 188.003,58.294 188.311,58.294 189.063 M332.539 189.844 C 332.539 191.025,332.612 191.509,332.702 190.918 C 332.791 190.327,332.791 189.360,332.702 188.770 C 332.612 188.179,332.539 188.662,332.539 189.844 M80.980 195.117 C 80.983 196.406,81.056 196.887,81.142 196.184 C 81.229 195.482,81.228 194.428,81.138 193.841 C 81.049 193.254,80.978 193.828,80.980 195.117 M332.953 198.438 C 332.953 200.479,333.019 201.313,333.100 200.293 C 333.180 199.272,333.180 197.603,333.100 196.582 C 333.019 195.562,332.953 196.396,332.953 198.438 M224.743 199.805 C 224.745 201.523,224.813 202.178,224.896 201.259 C 224.978 200.340,224.977 198.934,224.893 198.134 C 224.809 197.334,224.742 198.086,224.743 199.805 M57.941 200.586 C 57.942 202.090,58.013 202.657,58.098 201.847 C 58.182 201.036,58.181 199.806,58.094 199.112 C 58.008 198.419,57.939 199.082,57.941 200.586 M224.795 231.250 C 224.795 246.826,224.843 253.198,224.902 245.410 C 224.961 237.622,224.961 224.878,224.902 217.090 C 224.843 209.302,224.795 215.674,224.795 231.250 M80.971 205.664 C 80.974 206.738,81.050 207.131,81.140 206.538 C 81.229 205.944,81.227 205.065,81.134 204.584 C 81.042 204.104,80.968 204.590,80.971 205.664 M332.543 208.008 C 332.545 209.297,332.618 209.777,332.705 209.075 C 332.792 208.373,332.790 207.318,332.701 206.731 C 332.612 206.144,332.541 206.719,332.543 208.008 M58.310 210.156 C 58.310 211.123,58.386 211.519,58.479 211.035 C 58.572 210.552,58.572 209.761,58.479 209.277 C 58.386 208.794,58.310 209.189,58.310 210.156 M134.863 210.448 C 138.247 210.514,143.784 210.514,147.168 210.448 C 150.552 210.383,147.783 210.330,141.016 210.330 C 134.248 210.330,131.479 210.383,134.863 210.448 M332.122 212.500 C 332.122 213.252,332.202 213.560,332.301 213.184 C 332.399 212.808,332.399 212.192,332.301 211.816 C 332.202 211.440,332.122 211.748,332.122 212.500 M239.630 218.005 C 239.286 218.670,239.074 219.283,239.159 219.367 C 239.244 219.452,239.605 218.908,239.963 218.159 C 240.766 216.475,240.488 216.346,239.630 218.005 M270.095 231.641 C 270.095 238.193,270.149 240.874,270.214 237.598 C 270.279 234.321,270.279 228.960,270.214 225.684 C 270.149 222.407,270.095 225.088,270.095 231.641 M326.004 241.239 C 325.861 241.811,325.819 242.355,325.911 242.447 C 326.003 242.539,326.196 242.146,326.339 241.574 C 326.483 241.001,326.525 240.457,326.433 240.365 C 326.341 240.273,326.148 240.666,326.004 241.239 M239.078 244.277 C 239.060 245.105,241.454 247.657,242.246 247.655 C 242.536 247.654,242.192 247.299,241.482 246.866 C 240.771 246.433,239.943 245.511,239.642 244.817 C 239.289 244.006,239.088 243.813,239.078 244.277 M244.438 247.933 C 244.924 248.026,245.627 248.022,246.001 247.925 C 246.374 247.827,245.977 247.750,245.117 247.755 C 244.258 247.759,243.952 247.839,244.438 247.933 M91.406 248.196 C 91.406 248.616,92.569 250.781,92.794 250.781 C 92.901 250.781,92.698 250.210,92.343 249.512 C 91.618 248.086,91.406 247.789,91.406 248.196 M70.738 258.008 C 70.738 258.223,71.162 259.189,71.680 260.156 C 72.197 261.123,72.621 261.738,72.621 261.523 C 72.621 261.309,72.197 260.342,71.680 259.375 C 71.162 258.408,70.738 257.793,70.738 258.008 M171.484 261.426 C 171.484 261.587,183.569 261.678,198.340 261.628 C 213.110 261.578,220.889 261.491,215.625 261.434 C 190.770 261.163,171.484 261.160,171.484 261.426 M135.645 261.621 C 141.392 261.682,150.796 261.682,156.543 261.621 C 162.290 261.560,157.588 261.510,146.094 261.510 C 134.600 261.510,129.897 261.560,135.645 261.621 M239.773 261.621 C 245.428 261.682,254.569 261.682,260.086 261.621 C 265.603 261.560,260.977 261.510,249.805 261.510 C 238.633 261.510,234.119 261.560,239.773 261.621 M73.438 263.672 C 73.876 264.531,74.323 265.234,74.430 265.234 C 74.537 265.234,74.267 264.531,73.828 263.672 C 73.390 262.813,72.943 262.109,72.836 262.109 C 72.728 262.109,72.999 262.813,73.438 263.672 M289.453 264.844 C 288.994 265.488,288.707 266.016,288.814 266.016 C 288.921 266.016,289.385 265.488,289.844 264.844 C 290.303 264.199,290.590 263.672,290.483 263.672 C 290.375 263.672,289.912 264.199,289.453 264.844 M311.477 272.363 C 310.132 274.645,310.045 274.839,310.730 274.023 C 311.523 273.078,312.207 271.875,311.951 271.875 C 311.849 271.875,311.635 272.095,311.477 272.363 M109.766 275.889 C 109.766 275.948,111.128 277.310,112.793 278.916 L 115.820 281.836 112.900 278.809 C 110.188 275.997,109.766 275.603,109.766 275.889 M276.172 280.664 C 274.571 282.275,273.350 283.594,273.457 283.594 C 273.564 283.594,274.962 282.275,276.563 280.664 C 278.163 279.053,279.385 277.734,279.277 277.734 C 279.170 277.734,277.772 279.053,276.172 280.664 M307.031 278.906 C 306.572 279.551,306.285 280.078,306.392 280.078 C 306.500 280.078,306.963 279.551,307.422 278.906 C 307.881 278.262,308.168 277.734,308.061 277.734 C 307.954 277.734,307.490 278.262,307.031 278.906 M300.760 287.012 L 299.414 288.477 300.879 287.130 C 302.242 285.877,302.523 285.547,302.225 285.547 C 302.160 285.547,301.501 286.206,300.760 287.012 M122.231 287.631 C 122.802 288.342,125.000 290.016,125.000 289.740 C 125.000 289.654,124.253 288.990,123.340 288.265 C 122.427 287.539,121.928 287.254,122.231 287.631 M293.191 295.233 C 289.187 299.430,288.396 300.364,290.972 297.852 C 294.565 294.348,299.906 288.644,299.552 288.690 C 299.476 288.699,296.614 291.644,293.191 295.233 M97.852 296.484 C 101.284 299.922,104.180 302.734,104.288 302.734 C 104.395 302.734,101.675 299.922,98.242 296.484 C 94.810 293.047,91.913 290.234,91.806 290.234 C 91.699 290.234,94.419 293.047,97.852 296.484 M261.719 293.016 C 260.357 294.210,260.357 294.211,261.609 293.378 C 262.301 292.918,262.971 292.374,263.097 292.169 C 263.474 291.560,263.161 291.752,261.719 293.016 M245.703 302.539 C 245.166 302.846,244.902 303.097,245.117 303.097 C 245.332 303.097,245.947 302.846,246.484 302.539 C 247.021 302.232,247.285 301.981,247.070 301.981 C 246.855 301.981,246.240 302.232,245.703 302.539 M282.513 305.090 C 281.812 305.728,281.383 306.250,281.561 306.250 C 281.739 306.250,282.390 305.723,283.008 305.078 C 284.444 303.580,284.166 303.586,282.513 305.090 M111.293 308.335 C 111.864 309.046,114.063 310.720,114.063 310.444 C 114.063 310.357,113.315 309.693,112.402 308.968 C 111.489 308.242,110.990 307.957,111.293 308.335 M114.453 310.714 C 114.453 310.917,118.652 313.928,120.508 315.056 C 122.526 316.283,121.036 315.071,117.676 312.753 C 115.903 311.530,114.453 310.612,114.453 310.714 M184.478 313.952 C 185.072 314.042,185.951 314.040,186.431 313.947 C 186.912 313.854,186.426 313.781,185.352 313.784 C 184.277 313.787,183.884 313.862,184.478 313.952 M204.590 313.948 C 205.073 314.041,205.864 314.041,206.348 313.948 C 206.831 313.854,206.436 313.778,205.469 313.778 C 204.502 313.778,204.106 313.854,204.590 313.948 M193.262 314.352 C 194.604 314.428,196.802 314.428,198.145 314.352 C 199.487 314.275,198.389 314.213,195.703 314.213 C 193.018 314.213,191.919 314.275,193.262 314.352 M128.125 319.706 C 128.125 319.814,128.652 320.175,129.297 320.508 C 129.941 320.841,130.469 321.026,130.469 320.919 C 130.469 320.811,129.941 320.450,129.297 320.117 C 128.652 319.784,128.125 319.599,128.125 319.706 M132.422 322.057 C 132.422 322.165,133.301 322.698,134.375 323.242 C 135.449 323.787,136.328 324.144,136.328 324.037 C 136.328 323.929,135.449 323.396,134.375 322.852 C 133.301 322.307,132.422 321.950,132.422 322.057 M250.000 325.586 C 249.463 325.893,249.199 326.144,249.414 326.144 C 249.629 326.144,250.244 325.893,250.781 325.586 C 251.318 325.279,251.582 325.028,251.367 325.028 C 251.152 325.028,250.537 325.279,250.000 325.586 M211.426 336.597 C 211.802 336.696,212.417 336.696,212.793 336.597 C 213.169 336.499,212.861 336.419,212.109 336.419 C 211.357 336.419,211.050 336.499,211.426 336.597 M181.548 336.995 C 182.033 337.088,182.737 337.085,183.110 336.987 C 183.483 336.889,183.086 336.813,182.227 336.817 C 181.367 336.822,181.062 336.902,181.548 336.995 M207.910 336.988 C 208.286 337.086,208.901 337.086,209.277 336.988 C 209.653 336.890,209.346 336.809,208.594 336.809 C 207.842 336.809,207.534 336.890,207.910 336.988 M185.840 337.385 C 186.323 337.478,187.114 337.478,187.598 337.385 C 188.081 337.292,187.686 337.216,186.719 337.216 C 185.752 337.216,185.356 337.292,185.840 337.385 M201.456 337.391 C 202.150 337.478,203.380 337.479,204.191 337.394 C 205.001 337.310,204.434 337.239,202.930 337.238 C 201.426 337.236,200.763 337.305,201.456 337.391 " stroke="none" fill="#787c80" fill-rule="evenodd"></path><path id="path2" d="M188.867 63.348 C 190.966 63.723,201.079 63.748,201.306 63.379 C 201.405 63.218,198.295 63.082,194.395 63.077 C 190.388 63.072,187.984 63.190,188.867 63.348 M205.664 63.672 C 205.797 63.887,206.148 64.063,206.445 64.063 C 206.742 64.063,207.094 63.887,207.227 63.672 C 207.364 63.449,207.028 63.281,206.445 63.281 C 205.863 63.281,205.527 63.449,205.664 63.672 M263.281 68.408 C 263.281 68.843,264.098 68.839,264.788 68.402 C 265.162 68.165,265.018 68.066,264.300 68.066 C 263.739 68.066,263.281 68.220,263.281 68.408 M255.859 76.738 C 255.859 77.041,257.381 77.220,257.793 76.965 C 258.047 76.808,257.719 76.668,257.055 76.649 C 256.397 76.630,255.859 76.670,255.859 76.738 M187.500 86.328 C 187.500 86.543,188.247 86.701,189.160 86.680 C 190.570 86.647,190.673 86.594,189.844 86.328 C 188.438 85.878,187.500 85.878,187.500 86.328 M204.102 86.328 C 204.234 86.543,204.607 86.719,204.929 86.719 C 205.251 86.719,205.406 86.543,205.273 86.328 C 205.141 86.113,204.768 85.938,204.446 85.938 C 204.124 85.938,203.969 86.113,204.102 86.328 M275.000 108.984 C 275.000 109.199,275.362 109.375,275.804 109.375 C 276.247 109.375,276.500 109.199,276.367 108.984 C 276.234 108.770,275.872 108.594,275.563 108.594 C 275.253 108.594,275.000 108.770,275.000 108.984 M269.727 109.375 C 269.589 109.597,269.926 109.766,270.508 109.766 C 271.090 109.766,271.427 109.597,271.289 109.375 C 271.156 109.160,270.805 108.984,270.508 108.984 C 270.211 108.984,269.859 109.160,269.727 109.375 M249.531 111.016 C 249.896 111.380,250.104 111.380,250.469 111.016 C 250.833 110.651,250.729 110.547,250.000 110.547 C 249.271 110.547,249.167 110.651,249.531 111.016 M113.310 154.218 C 113.293 157.766,113.411 158.986,113.772 158.990 C 114.092 158.994,114.058 159.125,113.672 159.375 C 112.958 159.836,113.575 159.836,114.648 159.375 C 115.316 159.088,115.331 159.035,114.746 159.012 C 114.140 158.987,114.062 158.511,114.057 154.785 C 114.053 152.476,113.889 150.331,113.692 150.019 C 113.462 149.656,113.325 151.166,113.310 154.218 M281.112 152.441 C 280.775 155.251,280.797 158.900,281.152 159.117 C 281.313 159.215,281.488 157.291,281.540 154.843 C 281.642 150.016,281.500 149.216,281.112 152.441 M198.633 159.375 L 197.461 159.673 198.730 159.719 C 199.429 159.745,200.000 159.590,200.000 159.375 C 200.000 159.160,199.956 159.005,199.902 159.031 C 199.849 159.056,199.277 159.211,198.633 159.375 M231.934 159.260 C 232.417 159.353,233.208 159.353,233.691 159.260 C 234.175 159.167,233.779 159.091,232.813 159.091 C 231.846 159.091,231.450 159.167,231.934 159.260 M168.652 159.651 C 169.136 159.744,169.927 159.744,170.410 159.651 C 170.894 159.558,170.498 159.481,169.531 159.481 C 168.564 159.481,168.169 159.558,168.652 159.651 M226.079 159.651 C 226.565 159.745,227.268 159.741,227.641 159.643 C 228.015 159.546,227.617 159.469,226.758 159.474 C 225.898 159.478,225.593 159.558,226.079 159.651 M113.309 206.520 C 113.324 230.855,113.482 249.463,113.670 249.023 C 114.158 247.882,114.160 163.778,113.672 163.476 C 113.412 163.316,113.290 177.769,113.309 206.520 M167.057 163.542 C 166.914 163.685,166.823 185.614,166.855 212.272 C 166.888 238.931,166.979 260.303,167.058 259.766 C 167.173 258.979,167.464 163.281,167.350 163.281 C 167.332 163.281,167.201 163.398,167.057 163.542 M281.120 163.542 C 280.762 163.899,280.800 248.912,281.158 249.474 C 281.316 249.723,281.445 230.431,281.445 206.603 C 281.445 182.776,281.431 163.281,281.413 163.281 C 281.395 163.281,281.263 163.398,281.120 163.542 M157.325 194.665 C 157.380 200.715,157.498 205.840,157.587 206.055 C 157.677 206.270,157.762 201.523,157.776 195.508 C 157.789 189.492,157.671 184.367,157.514 184.119 C 157.356 183.870,157.271 188.616,157.325 194.665 M80.859 190.211 C 80.859 190.654,81.035 191.016,81.250 191.016 C 81.465 191.016,81.641 190.762,81.641 190.453 C 81.641 190.143,81.465 189.781,81.250 189.648 C 81.035 189.516,80.859 189.769,80.859 190.211 M57.840 190.918 C 57.825 191.616,57.988 192.188,58.203 192.188 C 58.667 192.188,58.667 191.509,58.203 190.430 C 57.922 189.775,57.863 189.854,57.840 190.918 M332.672 193.442 C 332.540 193.933,332.449 194.775,332.470 195.313 C 332.492 195.888,332.647 195.577,332.847 194.556 C 333.206 192.726,333.080 191.921,332.672 193.442 M310.059 193.194 C 309.897 193.357,309.766 193.847,309.766 194.284 C 309.766 194.859,309.884 194.960,310.193 194.651 C 310.428 194.416,310.560 193.925,310.486 193.561 C 310.412 193.197,310.220 193.032,310.059 193.194 M80.574 199.567 C 80.572 201.638,80.697 202.620,80.912 202.235 C 81.106 201.889,81.107 200.473,80.915 198.957 L 80.576 196.289 80.574 199.567 M309.766 202.842 C 309.766 203.831,309.932 204.744,310.136 204.870 C 310.554 205.129,310.455 201.731,310.032 201.308 C 309.885 201.161,309.766 201.852,309.766 202.842 M332.455 204.102 C 332.444 204.531,332.604 205.146,332.813 205.469 C 333.314 206.245,333.314 205.269,332.813 204.102 L 332.477 203.320 332.455 204.102 M124.655 204.949 C 124.630 205.200,124.496 205.727,124.357 206.120 C 124.160 206.676,124.212 206.736,124.589 206.389 C 124.855 206.143,124.989 205.616,124.887 205.217 C 124.784 204.818,124.680 204.698,124.655 204.949 M57.813 207.227 C 57.813 207.549,57.988 207.813,58.203 207.813 C 58.418 207.813,58.594 207.549,58.594 207.227 C 58.594 206.904,58.418 206.641,58.203 206.641 C 57.988 206.641,57.813 206.904,57.813 207.227 M309.549 208.628 C 309.405 208.861,309.482 209.248,309.722 209.487 C 310.041 209.806,310.156 209.694,310.156 209.063 C 310.156 208.119,309.953 207.974,309.549 208.628 M332.043 210.156 C 332.043 210.479,332.214 211.006,332.422 211.328 C 332.758 211.849,332.801 211.849,332.801 211.328 C 332.801 211.006,332.630 210.479,332.422 210.156 C 332.085 209.635,332.043 209.635,332.043 210.156 M244.244 215.515 C 244.837 215.604,245.716 215.602,246.197 215.509 C 246.677 215.417,246.191 215.343,245.117 215.346 C 244.043 215.349,243.650 215.425,244.244 215.515 M242.817 247.586 C 242.708 247.762,243.137 247.829,243.771 247.737 C 244.404 247.644,244.922 247.500,244.922 247.417 C 244.922 247.119,243.011 247.272,242.817 247.586 M121.484 287.109 C 121.943 287.754,122.407 288.281,122.514 288.281 C 122.622 288.281,122.334 287.754,121.875 287.109 C 121.416 286.465,120.953 285.938,120.845 285.938 C 120.738 285.938,121.025 286.465,121.484 287.109 M99.414 298.438 C 100.253 299.297,101.028 300.000,101.135 300.000 C 101.243 300.000,100.644 299.297,99.805 298.438 C 98.966 297.578,98.191 296.875,98.084 296.875 C 97.976 296.875,98.575 297.578,99.414 298.438 M205.469 337.109 C 206.238 337.607,207.143 337.607,206.836 337.109 C 206.703 336.895,206.209 336.721,205.739 336.725 C 205.043 336.730,204.992 336.802,205.469 337.109 M189.453 337.527 C 188.603 337.776,188.667 337.818,189.941 337.852 C 191.429 337.891,191.803 337.723,190.918 337.412 C 190.649 337.318,189.990 337.369,189.453 337.527 M192.220 337.256 C 192.310 337.336,194.229 337.519,196.484 337.662 C 199.334 337.843,200.407 337.801,200.000 337.522 C 199.475 337.163,191.826 336.901,192.220 337.256 " stroke="none" fill="#aeb0b4" fill-rule="evenodd"></path><path id="path3" d="M191.309 63.166 C 191.792 63.259,192.583 63.259,193.066 63.166 C 193.550 63.073,193.154 62.997,192.188 62.997 C 191.221 62.997,190.825 63.073,191.309 63.166 M196.973 63.160 C 197.349 63.258,197.964 63.258,198.340 63.160 C 198.716 63.062,198.408 62.981,197.656 62.981 C 196.904 62.981,196.597 63.062,196.973 63.160 M195.020 86.207 C 195.396 86.305,196.011 86.305,196.387 86.207 C 196.763 86.109,196.455 86.028,195.703 86.028 C 194.951 86.028,194.644 86.109,195.020 86.207 M281.341 185.547 C 281.341 186.299,281.421 186.606,281.519 186.230 C 281.618 185.854,281.618 185.239,281.519 184.863 C 281.421 184.487,281.341 184.795,281.341 185.547 M281.384 197.852 C 281.385 199.570,281.454 200.225,281.537 199.306 C 281.619 198.387,281.618 196.981,281.534 196.181 C 281.450 195.381,281.382 196.133,281.384 197.852 M332.903 203.125 C 332.903 203.877,332.984 204.185,333.082 203.809 C 333.180 203.433,333.180 202.817,333.082 202.441 C 332.984 202.065,332.903 202.373,332.903 203.125 M57.919 204.688 C 57.919 205.654,57.995 206.050,58.088 205.566 C 58.181 205.083,58.181 204.292,58.088 203.809 C 57.995 203.325,57.919 203.721,57.919 204.688 M309.466 210.938 C 309.466 211.689,309.546 211.997,309.644 211.621 C 309.743 211.245,309.743 210.630,309.644 210.254 C 309.546 209.878,309.466 210.186,309.466 210.938 M281.367 214.453 C 281.367 215.635,281.440 216.118,281.530 215.527 C 281.619 214.937,281.619 213.970,281.530 213.379 C 281.440 212.788,281.367 213.271,281.367 214.453 M263.184 215.901 C 263.667 215.994,264.458 215.994,264.941 215.901 C 265.425 215.808,265.029 215.731,264.063 215.731 C 263.096 215.731,262.700 215.808,263.184 215.901 M238.842 231.055 C 238.842 236.641,238.897 238.871,238.964 236.012 C 239.031 233.153,239.031 228.582,238.964 225.856 C 238.897 223.129,238.842 225.469,238.842 231.055 M191.699 224.120 C 194.976 224.186,200.337 224.186,203.613 224.120 C 206.890 224.055,204.209 224.002,197.656 224.002 C 191.104 224.002,188.423 224.055,191.699 224.120 M281.391 234.766 C 281.391 236.807,281.457 237.642,281.537 236.621 C 281.618 235.601,281.618 233.931,281.537 232.910 C 281.457 231.890,281.391 232.725,281.391 234.766 M247.960 247.943 C 248.878 248.025,250.285 248.024,251.085 247.940 C 251.885 247.856,251.133 247.789,249.414 247.790 C 247.695 247.792,247.041 247.860,247.960 247.943 M254.600 247.943 C 255.519 248.025,256.925 248.024,257.725 247.940 C 258.525 247.856,257.773 247.789,256.055 247.790 C 254.336 247.792,253.681 247.860,254.600 247.943 M260.840 247.942 C 261.753 248.025,263.247 248.025,264.160 247.942 C 265.073 247.860,264.326 247.793,262.500 247.793 C 260.674 247.793,259.927 247.860,260.840 247.942 M194.438 337.776 C 194.924 337.870,195.627 337.866,196.001 337.768 C 196.374 337.671,195.977 337.594,195.117 337.599 C 194.258 337.603,193.952 337.683,194.438 337.776 " stroke="none" fill="#9c9c9f" fill-rule="evenodd"></path><path id="path4" d="M281.349 157.227 C 281.353 158.086,281.433 158.392,281.526 157.906 C 281.620 157.420,281.616 156.717,281.518 156.343 C 281.421 155.970,281.344 156.367,281.349 157.227 M115.054 159.351 C 114.772 159.808,196.500 159.857,198.438 159.401 C 199.189 159.225,180.786 159.059,157.542 159.034 C 131.828 159.006,115.190 159.130,115.054 159.351 M200.000 159.346 C 200.000 159.528,218.287 159.688,240.637 159.703 C 264.002 159.718,281.183 159.583,281.061 159.385 C 280.787 158.942,200.000 158.903,200.000 159.346 M281.384 167.773 C 281.385 169.492,281.454 170.147,281.537 169.228 C 281.619 168.309,281.618 166.903,281.534 166.103 C 281.450 165.303,281.382 166.055,281.384 167.773 M167.319 171.875 C 167.319 173.486,167.388 174.146,167.472 173.340 C 167.556 172.534,167.556 171.216,167.472 170.410 C 167.388 169.604,167.319 170.264,167.319 171.875 M281.410 177.930 C 281.409 181.582,281.468 183.129,281.540 181.367 C 281.613 179.605,281.613 176.617,281.541 174.726 C 281.469 172.836,281.410 174.277,281.410 177.930 M167.352 182.813 C 167.352 187.217,167.409 189.019,167.479 186.816 C 167.548 184.614,167.548 181.011,167.479 178.809 C 167.409 176.606,167.352 178.408,167.352 182.813 M157.138 185.938 C 157.138 186.904,157.214 187.300,157.307 186.816 C 157.400 186.333,157.400 185.542,157.307 185.059 C 157.214 184.575,157.138 184.971,157.138 185.938 M157.188 193.750 C 157.188 197.080,157.248 198.442,157.322 196.777 C 157.395 195.112,157.395 192.388,157.322 190.723 C 157.248 189.058,157.188 190.420,157.188 193.750 M281.356 192.188 C 281.356 193.154,281.433 193.550,281.526 193.066 C 281.619 192.583,281.619 191.792,281.526 191.309 C 281.433 190.825,281.356 191.221,281.356 192.188 M167.330 194.727 C 167.331 196.875,167.397 197.704,167.476 196.569 C 167.555 195.434,167.554 193.676,167.474 192.663 C 167.394 191.649,167.329 192.578,167.330 194.727 M167.341 203.906 C 167.341 206.807,167.402 207.993,167.477 206.543 C 167.552 205.093,167.552 202.720,167.477 201.270 C 167.402 199.819,167.341 201.006,167.341 203.906 M157.122 201.953 C 157.122 202.705,157.202 203.013,157.301 202.637 C 157.399 202.261,157.399 201.646,157.301 201.270 C 157.202 200.894,157.122 201.201,157.122 201.953 M281.356 204.688 C 281.356 205.654,281.433 206.050,281.526 205.566 C 281.619 205.083,281.619 204.292,281.526 203.809 C 281.433 203.325,281.356 203.721,281.356 204.688 M281.362 210.742 C 281.365 211.816,281.441 212.209,281.530 211.616 C 281.620 211.022,281.618 210.143,281.525 209.663 C 281.432 209.182,281.359 209.668,281.362 210.742 M167.354 217.969 C 167.354 222.803,167.411 224.780,167.479 222.363 C 167.548 219.946,167.548 215.991,167.479 213.574 C 167.411 211.157,167.354 213.135,167.354 217.969 M246.094 215.634 C 244.686 216.028,261.646 216.034,263.281 215.639 C 264.144 215.431,261.406 215.319,255.859 215.335 C 251.025 215.349,246.631 215.483,246.094 215.634 M281.356 220.313 C 281.356 221.279,281.433 221.675,281.526 221.191 C 281.619 220.708,281.619 219.917,281.526 219.434 C 281.433 218.950,281.356 219.346,281.356 220.313 M281.341 225.781 C 281.341 226.533,281.421 226.841,281.519 226.465 C 281.618 226.089,281.618 225.474,281.519 225.098 C 281.421 224.722,281.341 225.029,281.341 225.781 M167.345 232.813 C 167.345 236.143,167.405 237.505,167.478 235.840 C 167.551 234.175,167.551 231.450,167.478 229.785 C 167.405 228.120,167.345 229.482,167.345 232.813 M281.367 229.297 C 281.367 230.479,281.440 230.962,281.530 230.371 C 281.619 229.780,281.619 228.813,281.530 228.223 C 281.440 227.632,281.367 228.115,281.367 229.297 M167.313 241.406 C 167.313 242.803,167.383 243.374,167.470 242.676 C 167.557 241.978,167.557 240.835,167.470 240.137 C 167.383 239.438,167.313 240.010,167.313 241.406 M167.337 248.633 C 167.337 251.211,167.401 252.215,167.477 250.864 C 167.554 249.512,167.553 247.403,167.476 246.176 C 167.398 244.949,167.336 246.055,167.337 248.633 " stroke="none" fill="#a0a4a4" fill-rule="evenodd"></path></g></svg>